#!OML:ASF E:\id_vita\Project 1\Capture day 1\Session 1\Male1.ASF
:FULLY-SPECIFIED
:DEGREES
306
root 34.0462 16.0012 -1.49175 920.034 81.1453 918.015
lowerback -5.06643 -3.963 -0.988643
upperback -1.04115 -5.24299 1.90976
thorax 2.02787 -2.6163 2.15222
lowerneck -9.04379 1.34506 5.36776
upperneck 8.37176 0.98435 1.48286
head 4.43824 0.760095 -0.392736
rclavicle -5.94273e-014 6.06293e-015
rhumerus -59.1356 -42.8742 -39.2838
rradius 9.46307
rwrist 41.9837
rhand -20.1276 31.1236
rfingers 7.12502
rthumb 6.21667 1.23483
lclavicle -5.94273e-014 6.06293e-015
lhumerus -10.0759 -1.96027 91.0418
lradius 36.9588
lwrist 8.57395
lhand -14.2698 37.6457
lfingers 7.12502
lthumb 11.869 67.2893
rfemur -22.9809 -0.369599 24.7897
rtibia 33.1858
rfoot -9.19833 -6.56513
rtoes -8.55125
lfemur 5.46937 -2.8406 -16.4763
ltibia 48.7366
lfoot 3.23489 -21.7538
ltoes 17.1881
307
root 34.2195 16.0287 -1.49501 922.754 81.1872 920.921
lowerback -4.87321 -3.77368 -0.465365
upperback -1.01882 -5.01706 1.93308
thorax 1.8897 -2.49961 1.91613
lowerneck -8.69463 1.26577 5.365
upperneck 8.26568 0.90085 1.54765
head 4.326 0.718712 -0.377384
rclavicle 2.35187e-014 -1.98785e-015
rhumerus -59.794 -43.4605 -38.5596
rradius 10.2697
rwrist 42.4182
rhand -19.7598 32.8253
rfingers 7.12502
rthumb 6.57169 2.9473
lclavicle 2.35187e-014 -1.98785e-015
lhumerus -10.7164 -1.64577 91.162
lradius 35.7242
lwrist 7.68318
lhand -13.3556 37.9917
lfingers 7.12502
lthumb 12.7504 67.5824
rfemur -21.6523 -0.327441 25.3502
rtibia 32.2868
rfoot -9.31336 -6.62735
rtoes -8.83371
lfemur 3.99715 -2.4809 -15.9633
ltibia 51.6593
lfoot 1.36359 -19.2386
ltoes 12.402
308
root 34.3969 16.0637 -1.49848 926.636 81.0766 925.11
lowerback -4.80319 -3.64371 0.167249
upperback -0.723957 -4.88442 2.08743
thorax 2.10954 -2.43144 1.72628
lowerneck -8.8787 1.28576 5.25931
upperneck 8.18193 0.917327 1.68273
head 4.33113 0.728944 -0.311328
rclavicle -2.40654e-014 6.95746e-015
rhumerus -53.1742 -39.2826 -48.1903
rradius 11.1095
rwrist 34.2526
rhand -19.6931 32.5127
rfingers 7.12502
rthumb 6.63608 2.6367
lclavicle -2.40654e-014 6.95746e-015
lhumerus -10.8995 -1.13657 91.2658
lradius 34.2619
lwrist 6.6645
lhand -12.6284 38.81
lfingers 7.12502
lthumb 13.4513 68.3557
rfemur -20.0851 -0.338549 26.1715
rtibia 31.3041
rfoot -9.51742 -6.71778
rtoes -10.1314
lfemur 2.50468 -2.06217 -15.1683
ltibia 54.4399
lfoot 0.423416 -16.6266
ltoes 10.2454
309
root 34.572 16.0964 -1.50125 929.95 81.0112 928.809
lowerback -4.6018 -3.38524 0.754159
upperback -0.515915 -4.57228 2.18641
thorax 2.1635 -2.27132 1.52917
lowerneck -8.99474 1.1554 5.00667
upperneck 8.20798 0.74981 1.86081
head 4.35684 0.648773 -0.216464
rclavicle 9.11024e-014 -1.45113e-014
rhumerus -49.904 -36.938 -53.1343
rradius 11.9755
rwrist 29.8202
rhand -19.5799 32.4668
rfingers 7.12502
rthumb 6.74533 2.5942
lclavicle 9.11024e-014 -1.45113e-014
lhumerus -11.3456 -0.708728 91.5063
lradius 32.6652
lwrist 5.33254
lhand -12.4885 39.029
lfingers 7.12502
lthumb 13.5863 68.5657
rfemur -18.4619 -0.274431 26.8861
rtibia 30.3582
rfoot -9.84151 -6.86205
rtoes -10.4915
lfemur 1.048 -1.61305 -14.4705
ltibia 57.0003
lfoot -0.117189 -14.52
ltoes 10.3498
310
root 34.7387 16.1237 -1.50032 931.967 81.1147 931.055
lowerback -4.34458 -3.16475 1.00058
upperback -0.495422 -4.28476 2.1897
thorax 2.01615 -2.12608 1.42937
lowerneck -8.87164 1.09224 5.11109
upperneck 8.36266 0.670259 1.7168
head 4.38833 0.609142 -0.288982
rclavicle -3.86745e-014 4.67144e-015
rhumerus -48.0358 -35.8734 -55.8384
rradius 12.5564
rwrist 27.9149
rhand -19.5937 33.1882
rfingers 7.12502
rthumb 6.73207 3.31526
lclavicle -3.86745e-014 4.67144e-015
lhumerus -12.1001 0.119699 91.5656
lradius 31.0739
lwrist 3.76037
lhand -12.8006 38.2648
lfingers 7.12502
lthumb 13.2854 67.8214
rfemur -17.0844 0.048016 27.271
rtibia 29.4676
rfoot -9.89519 -7.08648
rtoes -11.0455
lfemur -0.563055 -1.11548 -14.0851
ltibia 59.2926
lfoot -0.225384 -12.7014
ltoes 11.0808
311
root 34.8897 16.1466 -1.51009 930.9 81.4767 929.965
lowerback -4.21205 -2.98835 0.842686
upperback -0.455202 -4.04043 2.0095
thorax 1.97638 -2.00673 1.35348
lowerneck -8.75418 1.08822 5.24615
upperneck 8.30884 0.677152 1.49797
head 4.34767 0.603244 -0.387401
rclavicle -3.88546e-014 -6.06293e-015
rhumerus -46.2899 -36.1027 -57.3832
rradius 12.4731
rwrist 27.8306
rhand -19.8019 34.0438
rfingers 7.12502
rthumb 6.53108 4.16451
lclavicle -3.88546e-014 -6.06293e-015
lhumerus -12.6536 1.19265 91.5074
lradius 29.5139
lwrist 2.1877
lhand -13.312 37.0324
lfingers 7.12502
lthumb 12.7924 66.6204
rfemur -16.1299 0.0805202 26.9573
rtibia 28.7779
rfoot -10.3563 -6.87943
rtoes -8.48783
lfemur -2.37915 -0.739703 -14.4908
ltibia 61.2921
lfoot -0.241277 -10.9456
ltoes 11.2693
